<svg xmlns="http://www.w3.org/2000/svg" xmlns:xlink="http://www.w3.org/1999/xlink" id="Layer_3" width="240.047" height="330" x="0" style="enable-background:new 0 0 240.047 330" y="0" version="1.1" viewBox="0 0 240.047 330" xml:space="preserve"><g id="Faraday"><g id="Piel"><rect style="fill:#f9ebe2" width="15" height="15" x="150.03" y="75"/><rect style="fill:#f9ebe2" width="15" height="15" x="165.034" y="75"/><rect style="fill:#f9ebe2" width="15" height="15" x="120.024" y="90"/><rect style="fill:#f9ebe2" width="15" height="15" x="135.027" y="90"/><rect style="fill:#f9ebe2" width="15" height="15" x="150.03" y="90"/><rect style="fill:#f9ebe2" width="15" height="15" x="165.034" y="90"/><rect style="fill:#f9ebe2" width="15" height="15" x="180.037" y="90"/><rect style="fill:#f9ebe2" width="15" height="15" x="60.01" y="105"/><rect style="fill:#f9ebe2" width="15" height="15" x="75.014" y="105"/><rect style="fill:#f9ebe2" width="15" height="15" x="90.017" y="105"/><rect style="fill:#f9ebe2" width="15" height="15" x="105.02" y="105"/><rect style="fill:#f9ebe2" width="15" height="15" x="120.024" y="105"/><rect style="fill:#f9ebe2" width="15" height="15" x="135.027" y="105"/><rect style="fill:#f9ebe2" width="15" height="15" x="150.03" y="105"/><rect style="fill:#f9ebe2" width="15" height="15" x="165.034" y="105"/><rect style="fill:#f9ebe2" width="15" height="15" x="180.037" y="105"/><rect style="fill:#f9ebe2" width="15" height="15" x="195.041" y="105"/><rect style="fill:#f9ebe2" width="15" height="15" x="45.007" y="120"/><rect style="fill:#f9ebe2" width="15" height="15" x="60.01" y="120"/><rect style="fill:#f9ebe2" width="15" height="15" x="105.02" y="120"/><rect style="fill:#f9ebe2" width="15" height="15" x="120.024" y="120"/><rect style="fill:#f9ebe2" width="15" height="15" x="135.027" y="120"/><rect style="fill:#f9ebe2" width="15" height="15" x="180.037" y="120"/><rect style="fill:#f9ebe2" width="15" height="15" x="195.041" y="120"/><rect style="fill:#f9ebe2" width="15" height="15" x="45.007" y="135"/><rect style="fill:#f9ebe2" width="15" height="15" x="75.014" y="135"/><rect style="fill:#f9ebe2" width="15" height="15" x="90.017" y="135"/><rect style="fill:#f9ebe2" width="15" height="15" x="105.02" y="135"/><rect style="fill:#f9ebe2" width="15" height="15" x="120.024" y="135"/><rect style="fill:#f9ebe2" width="15" height="15" x="135.027" y="135"/><rect style="fill:#f9ebe2" width="15" height="15" x="150.03" y="135"/><rect style="fill:#f9ebe2" width="15" height="15" x="165.034" y="135"/><rect style="fill:#f9ebe2" width="15" height="15" x="195.041" y="135"/><rect style="fill:#f9ebe2" width="15" height="15" x="15" y="150"/><rect style="fill:#f9ebe2" width="15" height="15" x="45.007" y="150"/><rect style="fill:#f9ebe2" width="15" height="15" x="60.01" y="150"/><rect style="fill:#f9ebe2" width="15" height="15" x="75.014" y="150"/><rect style="fill:#f9ebe2" width="15" height="15" x="105.02" y="150"/><rect style="fill:#f9ebe2" width="15" height="15" x="120.024" y="150"/><rect style="fill:#f9ebe2" width="15" height="15" x="135.027" y="150"/><rect style="fill:#f9ebe2" width="15" height="15" x="165.034" y="150"/><rect style="fill:#f9ebe2" width="15" height="15" x="180.037" y="150"/><rect style="fill:#f9ebe2" width="15" height="15" x="195.041" y="150"/><rect style="fill:#f9ebe2" width="15" height="15" x="225.047" y="150"/><rect style="fill:#f9ebe2" width="15" height="15" x="15" y="165"/><rect style="fill:#f9ebe2" width="15" height="15" x="30.003" y="165"/><rect style="fill:#f9ebe2" width="15" height="15" x="45.007" y="165"/><rect style="fill:#f9ebe2" width="15" height="15" x="60.01" y="165"/><rect style="fill:#f9ebe2" width="15" height="15" x="75.014" y="165"/><rect style="fill:#f9ebe2" width="15" height="15" x="90.017" y="165"/><rect style="fill:#f9ebe2" width="15" height="15" x="105.02" y="165"/><rect style="fill:#f9ebe2" width="15" height="15" x="120.024" y="165"/><rect style="fill:#f9ebe2" width="15" height="15" x="135.027" y="165"/><rect style="fill:#f9ebe2" width="15" height="15" x="150.03" y="165"/><rect style="fill:#f9ebe2" width="15" height="15" x="165.034" y="165"/><rect style="fill:#f9ebe2" width="15" height="15" x="180.037" y="165"/><rect style="fill:#f9ebe2" width="15" height="15" x="195.041" y="165"/><rect style="fill:#f9ebe2" width="15" height="15" x="210.044" y="165"/><rect style="fill:#f9ebe2" width="15" height="15" x="225.047" y="165"/><rect style="fill:#f9ebe2" width="15" height="15" x="30.003" y="180"/><rect style="fill:#f9ebe2" width="15" height="15" x="45.007" y="180"/><rect style="fill:#f9ebe2" width="15" height="15" x="60.01" y="180"/><rect style="fill:#f9ebe2" width="15" height="15" x="75.014" y="180"/><rect style="fill:#f9ebe2" width="15" height="15" x="90.017" y="180"/><rect style="fill:#f9ebe2" width="15" height="15" x="105.02" y="180"/><rect style="fill:#f9ebe2" width="15" height="15" x="120.024" y="180"/><rect style="fill:#f9ebe2" width="15" height="15" x="135.027" y="180"/><rect style="fill:#f9ebe2" width="15" height="15" x="150.03" y="180"/><rect style="fill:#f9ebe2" width="15" height="15" x="165.034" y="180"/><rect style="fill:#f9ebe2" width="15" height="15" x="180.037" y="180"/><rect style="fill:#f9ebe2" width="15" height="15" x="195.041" y="180"/><rect style="fill:#f9ebe2" width="15" height="15" x="210.044" y="180"/><rect style="fill:#f9ebe2" width="15" height="15" x="45.007" y="195"/><rect style="fill:#f9ebe2" width="15" height="15" x="60.01" y="195"/><rect style="fill:#f9ebe2" width="15" height="15" x="75.014" y="195"/><rect style="fill:#f9ebe2" width="15" height="15" x="90.017" y="195"/><rect style="fill:#f9ebe2" width="15" height="15" x="105.02" y="195"/><rect style="fill:#f9ebe2" width="15" height="15" x="120.024" y="195"/><rect style="fill:#f9ebe2" width="15" height="15" x="135.027" y="195"/><rect style="fill:#f9ebe2" width="15" height="15" x="150.03" y="195"/><rect style="fill:#f9ebe2" width="15" height="15" x="165.034" y="195"/><rect style="fill:#f9ebe2" width="15" height="15" x="180.037" y="195"/><rect style="fill:#f9ebe2" width="15" height="15" x="195.041" y="195"/><rect style="fill:#f9ebe2" width="15" height="15" x="45.007" y="210"/><rect style="fill:#f9ebe2" width="15" height="15" x="60.01" y="210"/><rect style="fill:#f9ebe2" width="15" height="15" x="75.014" y="210"/><rect style="fill:#f9ebe2" width="15" height="15" x="90.017" y="210"/><rect style="fill:#f9ebe2" width="15" height="15" x="105.02" y="210"/><rect style="fill:#f9ebe2" width="15" height="15" x="120.024" y="210"/><rect style="fill:#f9ebe2" width="15" height="15" x="135.027" y="210"/><rect style="fill:#f9ebe2" width="15" height="15" x="150.03" y="210"/><rect style="fill:#f9ebe2" width="15" height="15" x="165.034" y="210"/><rect style="fill:#f9ebe2" width="15" height="15" x="180.037" y="210"/><rect style="fill:#f9ebe2" width="15" height="15" x="195.041" y="210"/><rect style="fill:#f9ebe2" width="15" height="15" x="45.007" y="225"/><rect style="fill:#f9ebe2" width="15" height="15" x="60.01" y="225"/><rect style="fill:#f9ebe2" width="15" height="15" x="75.014" y="225"/><rect style="fill:#f9ebe2" width="15" height="15" x="90.017" y="225"/><rect style="fill:#f9ebe2" width="15" height="15" x="150.03" y="225"/><rect style="fill:#f9ebe2" width="15" height="15" x="165.034" y="225"/><rect style="fill:#f9ebe2" width="15" height="15" x="180.037" y="225"/><rect style="fill:#f9ebe2" width="15" height="15" x="195.041" y="225"/><rect style="fill:#f9ebe2" width="15" height="15" x="60.01" y="240"/><rect style="fill:#f9ebe2" width="15" height="15" x="75.014" y="240"/><rect style="fill:#f9ebe2" width="15" height="15" x="105.02" y="240"/><rect style="fill:#f9ebe2" width="15" height="15" x="120.024" y="240"/><rect style="fill:#f9ebe2" width="15" height="15" x="135.027" y="240"/><rect style="fill:#f9ebe2" width="15" height="15" x="165.034" y="240"/><rect style="fill:#f9ebe2" width="15" height="15" x="180.037" y="240"/><rect style="fill:#f9ebe2" width="15" height="15" x="75.014" y="255"/><rect style="fill:#f9ebe2" width="15" height="15" x="105.02" y="255"/><rect style="fill:#f9ebe2" width="15" height="15" x="120.024" y="255"/><rect style="fill:#f9ebe2" width="15" height="15" x="135.027" y="255"/><rect style="fill:#f9ebe2" width="15" height="15" x="165.034" y="255"/><rect style="fill:#f9ebe2" width="15" height="15" x="105.02" y="270"/><rect style="fill:#f9ebe2" width="15" height="15" x="135.027" y="270"/></g><g id="Ceja_izq"><rect width="15" height="15" x="75.014" y="120"/><rect width="15" height="15" x="90.017" y="120"/><rect width="15" height="15" x="60.01" y="135"/></g><g id="Ceja_der"><rect width="15" height="15" x="150.03" y="120"/><rect width="15" height="15" x="165.034" y="120"/><rect width="15" height="15" x="180.037" y="135"/></g><rect id="Ojo_izq" width="15" height="15" x="90.017" y="150"/><rect id="Ojo_der" width="15" height="15" x="150.03" y="150"/><g id="Pelo"><rect width="15" height="15" x="75.014" y="0"/><rect width="15" height="15" x="90.017" y="0"/><rect width="15" height="15" x="105.02" y="0"/><rect width="15" height="15" x="120.024" y="0"/><rect width="15" height="15" x="135.027" y="0"/><rect width="15" height="15" x="150.03" y="0"/><rect width="15" height="15" x="165.034" y="0"/><rect width="15" height="15" x="60.01" y="15"/><rect width="15" height="15" x="75.014" y="15"/><rect width="15" height="15" x="90.017" y="15"/><rect width="15" height="15" x="105.02" y="15"/><rect width="15" height="15" x="120.024" y="15"/><rect width="15" height="15" x="135.027" y="15"/><rect width="15" height="15" x="150.03" y="15"/><rect width="15" height="15" x="165.034" y="15"/><rect width="15" height="15" x="180.037" y="15"/><rect width="15" height="15" x="195.041" y="15"/><rect width="15" height="15" x="45.007" y="30"/><rect width="15" height="15" x="60.01" y="30"/><rect width="15" height="15" x="75.014" y="30"/><rect width="15" height="15" x="90.017" y="30"/><rect width="15" height="15" x="105.02" y="30"/><rect width="15" height="15" x="120.024" y="30"/><rect width="15" height="15" x="135.027" y="30"/><rect width="15" height="15" x="150.03" y="30"/><rect width="15" height="15" x="165.034" y="30"/><rect width="15" height="15" x="180.037" y="30"/><rect width="15" height="15" x="195.041" y="30"/><rect width="15" height="15" x="210.044" y="30"/><rect width="15" height="15" x="30.003" y="45"/><rect width="15" height="15" x="45.007" y="45"/><rect width="15" height="15" x="60.01" y="45"/><rect width="15" height="15" x="75.014" y="45"/><rect width="15" height="15" x="90.017" y="45"/><rect width="15" height="15" x="105.02" y="45"/><rect width="15" height="15" x="120.024" y="45"/><rect width="15" height="15" x="135.027" y="45"/><rect width="15" height="15" x="150.03" y="45"/><rect width="15" height="15" x="165.034" y="45"/><rect width="15" height="15" x="195.041" y="45"/><rect width="15" height="15" x="210.044" y="45"/><rect width="15" height="15" x="15" y="60"/><rect width="15" height="15" x="30.003" y="60"/><rect width="15" height="15" x="45.007" y="60"/><rect width="15" height="15" x="60.01" y="60"/><rect width="15" height="15" x="75.014" y="60"/><rect width="15" height="15" x="90.017" y="60"/><rect width="15" height="15" x="105.02" y="60"/><rect width="15" height="15" x="120.024" y="60"/><rect width="15" height="15" x="135.027" y="60"/><rect width="15" height="15" x="150.03" y="60"/><rect width="15" height="15" x="165.034" y="60"/><rect width="15" height="15" x="180.037" y="60"/><rect width="15" height="15" x="195.041" y="60"/><rect width="15" height="15" x="210.044" y="60"/><rect width="15" height="15" x="225.047" y="60"/><rect width="15" height="15" x="15" y="75"/><rect width="15" height="15" x="30.003" y="75"/><rect width="15" height="15" x="45.007" y="75"/><rect width="15" height="15" x="60.01" y="75"/><rect width="15" height="15" x="75.014" y="75"/><rect width="15" height="15" x="90.017" y="75"/><rect width="15" height="15" x="105.02" y="75"/><rect width="15" height="15" x="120.024" y="75"/><rect width="15" height="15" x="135.027" y="75"/><rect width="15" height="15" x="180.037" y="75"/><rect width="15" height="15" x="195.041" y="75"/><rect width="15" height="15" x="180.037" y="45"/><rect width="15" height="15" x="210.044" y="75"/><rect width="15" height="15" x="225.047" y="75"/><rect width="15" height="15" x="15" y="90"/><rect width="15" height="15" x="30.003" y="90"/><rect width="15" height="15" x="45.007" y="90"/><rect width="15" height="15" x="60.01" y="90"/><rect width="15" height="15" x="75.014" y="90"/><rect width="15" height="15" x="90.017" y="90"/><rect width="15" height="15" x="105.02" y="90"/><rect width="15" height="15" x="195.041" y="90"/><rect width="15" height="15" x="210.044" y="90"/><rect width="15" height="15" x="225.047" y="90"/><rect width="15" height="15" x="15" y="105"/><rect width="15" height="15" x="0" y="105"/><rect width="15" height="15" x="30.003" y="105"/><rect width="15" height="15" x="45.007" y="105"/><rect width="15" height="15" x="210.044" y="105"/><rect width="15" height="15" x="225.047" y="105"/><rect width="15" height="15" x="15" y="120"/><rect width="15" height="15" x="30.003" y="120"/><rect width="15" height="15" x="210.044" y="120"/><rect width="15" height="15" x="225.047" y="120"/><rect width="15" height="15" x="15" y="135"/><rect width="15" height="15" x="30.003" y="135"/><rect width="15" height="15" x="210.044" y="135"/><rect width="15" height="15" x="225.047" y="135"/><rect width="15" height="15" x="30.003" y="150"/><rect width="15" height="15" x="210.044" y="150"/></g><g id="Barba"><rect width="15" height="15" x="15" y="180"/><rect width="15" height="15" x="225.047" y="180"/><rect width="15" height="15" x="15" y="195"/><rect width="15" height="15" x="30.003" y="195"/><rect width="15" height="15" x="210.044" y="195"/><rect width="15" height="15" x="225.047" y="195"/><rect width="15" height="15" x="30.003" y="210"/><rect width="15" height="15" x="210.044" y="210"/><rect width="15" height="15" x="30.003" y="225"/><rect width="15" height="15" x="105.02" y="225"/><rect width="15" height="15" x="120.024" y="225"/><rect width="15" height="15" x="135.027" y="225"/><rect width="15" height="15" x="210.044" y="225"/><rect width="15" height="15" x="30.003" y="240"/><rect width="15" height="15" x="45.007" y="240"/><rect width="15" height="15" x="90.017" y="240"/><rect width="15" height="15" x="150.03" y="240"/><rect width="15" height="15" x="195.041" y="240"/><rect width="15" height="15" x="210.044" y="240"/><rect width="15" height="15" x="15" y="255"/><rect width="15" height="15" x="45.007" y="255"/><rect width="15" height="15" x="60.01" y="255"/><rect width="15" height="15" x="90.017" y="255"/><rect width="15" height="15" x="150.03" y="255"/><rect width="15" height="15" x="180.037" y="255"/><rect width="15" height="15" x="195.041" y="255"/><rect width="15" height="15" x="225.047" y="255"/><rect width="15" height="15" x="45.007" y="270"/><rect width="15" height="15" x="60.01" y="270"/><rect width="15" height="15" x="75.014" y="270"/><rect width="15" height="15" x="90.017" y="270"/><rect width="15" height="15" x="120.024" y="270"/><rect width="15" height="15" x="150.03" y="270"/><rect width="15" height="15" x="165.034" y="270"/><rect width="15" height="15" x="180.037" y="270"/><rect width="15" height="15" x="195.041" y="270"/><rect width="15" height="15" x="30.003" y="285"/><rect width="15" height="15" x="45.007" y="285"/><rect width="15" height="15" x="75.014" y="285"/><rect width="15" height="15" x="90.017" y="285"/><rect width="15" height="15" x="105.02" y="285"/><rect width="15" height="15" x="120.024" y="285"/><rect width="15" height="15" x="135.027" y="285"/><rect width="15" height="15" x="150.03" y="285"/><rect width="15" height="15" x="165.034" y="285"/><rect width="15" height="15" x="195.041" y="285"/><rect width="15" height="15" x="210.044" y="285"/><rect width="15" height="15" x="90.017" y="300"/><rect width="15" height="15" x="105.02" y="300"/><rect width="15" height="15" x="120.024" y="300"/><rect width="15" height="15" x="135.027" y="300"/><rect width="15" height="15" x="150.03" y="300"/><rect width="15" height="15" x="105.02" y="315"/><rect width="15" height="15" x="120.024" y="315"/><rect width="15" height="15" x="135.027" y="315"/></g></g></svg>