<svg xmlns="http://www.w3.org/2000/svg" xmlns:xlink="http://www.w3.org/1999/xlink" id="Layer_1" x="0" y="0" version="1.1" viewBox="-14 16 170 170" xml:space="preserve" style="enable-background:new -14 16 170 170"><style type="text/css">.st0{fill:none;stroke-width:8;stroke-linecap:square}.st0,.st1,.st2{stroke:#5b5c62;stroke-miterlimit:10}.st1{fill:#5b5c62;stroke-width:4;stroke-linejoin:bevel}.st2{fill:none;stroke-width:6}.st3{fill:#fff}</style><g><path d="M134.7,157.1c8-12.1,12.6-26.6,12.6-42.2c0-42.6-34.5-77.1-77.1-77.1S-6.9,72.3-6.9,114.9 c0,15.6,4.6,30.1,12.6,42.2H134.7z" class="st0"/><path d="M84.8,114.9c0,8.1-6.6,14.7-14.7,14.7s-14.7-6.6-14.7-14.7s14.7-48.7,14.7-48.7S84.8,106.7,84.8,114.9z" class="st1"/><line x1="70.1" x2="70.1" y1="37.7" y2="55.4" class="st2"/><line x1="124" x2="111.5" y1="60.1" y2="72.6" class="st2"/><line x1="146.3" x2="128.6" y1="113.9" y2="113.9" class="st2"/><line x1="99.2" x2="95.6" y1="43.5" y2="52.1" class="st2"/><line x1="140.6" x2="132" y1="85" y2="88.5" class="st2"/><line x1="16.3" x2="28.8" y1="60.1" y2="72.6" class="st2"/><line x1="-6.1" x2="11.6" y1="113.9" y2="113.9" class="st2"/><line x1="41.1" x2="44.7" y1="43.5" y2="52.1" class="st2"/><line x1="-.3" x2="8.3" y1="85" y2="88.5" class="st2"/><circle cx="70.1" cy="113.9" r="6.4" class="st3"/></g></svg>