<svg xmlns="http://www.w3.org/2000/svg" xmlns:xlink="http://www.w3.org/1999/xlink" id="Layer_1" x="0" y="0" version="1.1" viewBox="-14 16 170 170" xml:space="preserve" style="enable-background:new -14 16 170 170"><style type="text/css">.st0{stroke-width:6;stroke-linecap:square}.st0,.st1,.st2{fill:none;stroke:#5b5c62;stroke-miterlimit:10}.st1{stroke-width:6;stroke-linejoin:bevel}.st2{stroke-width:8}.st3{fill:#5b5c62}</style><g><line x1="33.7" x2="66.7" y1="114.6" y2="114.6" class="st0"/><line x1="33.7" x2="66.7" y1="98.6" y2="98.6" class="st0"/><line x1="33.7" x2="66.7" y1="82.6" y2="82.6" class="st0"/><line x1="33.7" x2="115.7" y1="131.6" y2="131.6" class="st0"/><line x1="33.7" x2="54.7" y1="147.6" y2="147.6" class="st0"/><line x1="66.7" x2="77.7" y1="147.6" y2="147.6" class="st1"/><path d="M25.7,38.1h113.5c6.4,0,11.5,5.1,11.5,11.5v12.5h-114V49.6c0-6.4-5.1-11.5-11.5-11.5l0,0 c-6.4,0-11.5,5.1-11.5,11.5v37v29.5v43c0,6.4-5.1,11.5-11.5,11.5l0,0c-6.4,0-11.5-5.1-11.5-11.5v-12.5h23" class="st2"/><path d="M131.9,62.1v91.1c0,9.6-7.8,17.4-17.4,17.4H1.7" class="st2"/><g><path d="M95.9,82.3c-14.3,0-24.8,16.5-13.4,31.6l0,0c15,11.4,31.6,1,31.6-13.4H95.9V82.3L95.9,82.3z" class="st3"/><path d="M101.5,76.6v18.2l0,0h18.2C119.8,84.8,111.6,76.6,101.5,76.6z" class="st3"/></g></g></svg>