<svg xmlns="http://www.w3.org/2000/svg" xmlns:xlink="http://www.w3.org/1999/xlink" id="Layer_1" x="0" y="0" version="1.1" viewBox="0 0 170 170" xml:space="preserve" style="enable-background:new 0 0 170 170"><style type="text/css">.st0{fill:#fff;stroke:#b3b4b5;stroke-miterlimit:10}.st0,.st1{stroke-width:8}.st1,.st2{stroke:#b3b4b5;stroke-miterlimit:10}.st1,.st2{fill:none}.st2{stroke-width:6}</style><g><path d="M145.8,123.7v15.5c0,3.9-3.1,7-7,7l0,0" class="st0"/><path d="M18.7,61V37c0-2.2,1.8-4,4-4h38.2c0.6,0,1.1,0.2,1.5,0.6l11.8,12.7c0.4,0.4,0.9,0.6,1.5,0.6H85" class="st1"/><path d="M138.8,146.2" class="st1"/><polyline points="85.8 60.8 85.8 22 132.4 22 161 49.7 161 123.5 131.7 123.5" class="st1"/><polyline points="132.4 22 132.4 51.1 161 51.1" class="st2"/><path d="M138.8,146.2c-3.9,0-7-3.1-7-7V65c0-2.2-1.8-4-4-4H85H12.7c-2.2,0-4,1.8-4,4v77.2c0,2.2,1.8,4,4,4H138.8" class="st1"/><path d="M45.1,70.7v14.8c0,3.9,3.2,7.1,7.1,7.1l0,0c3.9,0,7.1-3.2,7.1-7.1V61c0-6.6-5.3-11.9-11.9-11.9h-1.2 c-6.6,0-11.9,5.3-11.9,11.9l0,0" class="st2"/></g></svg>