<svg xmlns="http://www.w3.org/2000/svg" xmlns:xlink="http://www.w3.org/1999/xlink" id="Layer_1" x="0" y="0" version="1.1" viewBox="0 0 170 170" xml:space="preserve" style="enable-background:new 0 0 170 170"><style type="text/css">.st0{fill:none;stroke:#b3b4b5;stroke-width:8;stroke-linecap:square;stroke-miterlimit:10}.st1{fill:#b3b4b5}.st2,.st3{fill:none;stroke:#b3b4b5;stroke-miterlimit:10}.st2{stroke-width:6;stroke-linecap:square}.st3{stroke-width:8}</style><g><g><polyline points="121.6 34.7 144.6 34.7 144.6 163.7 24.6 163.7 24.6 34.7 47.3 34.7" class="st0"/><rect width="15.3" height="54" x="42" y="60.7" class="st1"/><rect width="15.3" height="19" x="65" y="95.7" class="st1"/><rect width="15.3" height="32" x="88" y="82.7" class="st1"/><rect width="15.3" height="39.7" x="111" y="75" class="st1"/><line x1="46.6" x2="122.6" y1="127.7" y2="127.7" class="st2"/><line x1="46.6" x2="65.4" y1="143.7" y2="143.7" class="st2"/><line x1="77.4" x2="88.4" y1="143.7" y2="143.7" class="st2"/></g><path d="M118.6,22.7h-16.1c-1-9-8.6-16-17.9-16s-16.9,7-17.9,16H50.6l-4,23h76L118.6,22.7z" class="st3"/></g></svg>